<svg width="411" height="357" fill="none" xmlns="http://www.w3.org/2000/svg"><g clip-path="url(#a)"><path d="M68.594 84.574h1.953V31.005a31.02 31.02 0 0 1 9.072-21.924A30.96 30.96 0 0 1 101.522 0h113.386a30.95 30.95 0 0 1 21.903 9.081 31.025 31.025 0 0 1 9.072 21.924v293.889a31.02 31.02 0 0 1-9.072 21.924 30.963 30.963 0 0 1-21.903 9.081H101.522a30.962 30.962 0 0 1-21.902-9.081 31.022 31.022 0 0 1-9.073-21.924V122.706h-1.953V84.574Z" fill="#E6E6E6"/><path d="M100.272 8.064h14.8a11.006 11.006 0 0 0 5.008 13.863 10.984 10.984 0 0 0 5.168 1.292h64.957a10.983 10.983 0 0 0 9.121-4.865 11.011 11.011 0 0 0 1.055-10.29h13.823a23.12 23.12 0 0 1 16.357 6.781 23.166 23.166 0 0 1 6.775 16.373V324.68a23.166 23.166 0 0 1-6.775 16.373 23.122 23.122 0 0 1-16.357 6.782H100.272a23.118 23.118 0 0 1-16.357-6.782 23.166 23.166 0 0 1-6.775-16.373V31.218c0-6.141 2.438-12.03 6.776-16.373a23.12 23.12 0 0 1 16.356-6.781Z" fill="#fff"/><path d="M191.701 76.514a4.397 4.397 0 0 0 3.285-1.432 5.482 5.482 0 0 0 1.301-4.2 6.352 6.352 0 0 0-1.702-3.83 5.103 5.103 0 0 0-3.699-1.64 4.603 4.603 0 0 0-3.435 1.516 5.387 5.387 0 0 0-1.324 4.116 6.117 6.117 0 0 0 1.837 4.012 5.428 5.428 0 0 0 3.737 1.458Zm-.815-9.251c1.809 0 3.373 1.66 3.559 3.781a3.635 3.635 0 0 1-.822 2.788 2.54 2.54 0 0 1-1.922.832c-1.692 0-3.502-1.17-3.733-3.782a3.54 3.54 0 0 1 .846-2.704 2.784 2.784 0 0 1 2.072-.915Z" fill="#3F3D56"/><path d="M191.641 82.065a10.079 10.079 0 0 0 7.615-3.29 10.093 10.093 0 0 0 2.576-7.893 12.264 12.264 0 0 0-3.899-7.79 12.242 12.242 0 0 0-8.084-3.23c-3.328 0-6.066 1.07-7.918 3.094-1.756 1.92-2.579 4.623-2.316 7.61.249 2.83 1.449 4.304 2.411 5.042a4.049 4.049 0 0 0 3.067.88c1.521-.27 3.204-1.653 2.939-4.664l-.49-5.565a.925.925 0 0 0-1.627-.51.928.928 0 0 0-.214.672l.49 5.566c.131 1.496-.4 2.498-1.421 2.68a2.228 2.228 0 0 1-1.619-.528c-.668-.512-1.504-1.576-1.694-3.735-.22-2.5.415-4.644 1.837-6.198 1.493-1.632 3.76-2.494 6.555-2.494a10.388 10.388 0 0 1 6.837 2.742 10.403 10.403 0 0 1 3.304 6.59 8.248 8.248 0 0 1-4.933 8.502 8.228 8.228 0 0 1-3.416.668 9.267 9.267 0 0 1-4.222-.766.922.922 0 0 0-1.206.496.924.924 0 0 0 .49 1.21c1.555.677 3.244.989 4.938.91Zm9.758 132.235a.922.922 0 0 0 .906-1.105.918.918 0 0 0-.252-.474l-6.008-6.013a.922.922 0 0 0-1.302.004.926.926 0 0 0-.005 1.304l6.008 6.013a.921.921 0 0 0 .653.271Zm-15.25-2.313a.922.922 0 0 0 .907-1.105.927.927 0 0 0-.253-.474l-5.083-5.088a.922.922 0 0 0-1.303.005.925.925 0 0 0-.004 1.303l5.083 5.088a.91.91 0 0 0 .653.271Zm2.773 0a.92.92 0 0 0 .654-.271l3.696-3.7a.945.945 0 0 0 .204-.3.936.936 0 0 0-.199-1.013.924.924 0 0 0-1.312.005l-3.697 3.7a.918.918 0 0 0-.252.474.921.921 0 0 0 .906 1.105Z" fill="#3F3D56"/><path d="M179.68 206.899a2.306 2.306 0 0 0 2.134-1.428 2.314 2.314 0 0 0-1.683-3.153 2.308 2.308 0 0 0-2.762 2.268 2.32 2.32 0 0 0 .678 1.635 2.31 2.31 0 0 0 1.633.678Zm0-2.775a.462.462 0 1 1 0 .925.462.462 0 0 1 0-.925Zm7.856 10.639a2.308 2.308 0 0 0 2.134-1.428 2.315 2.315 0 0 0-.5-2.521 2.314 2.314 0 0 0-2.518-.501 2.312 2.312 0 0 0 .884 4.45Zm0-2.776a.462.462 0 1 1 0 .925.462.462 0 0 1 0-.925Zm6.469-3.7a2.311 2.311 0 0 0 1.634-3.948 2.304 2.304 0 0 0-2.518-.502 2.315 2.315 0 0 0-.749 3.772 2.316 2.316 0 0 0 1.633.678Zm0-2.776a.468.468 0 0 1 .427.286.463.463 0 1 1-.427-.286Zm8.78 11.565a2.311 2.311 0 0 0 2.267-2.764 2.319 2.319 0 0 0-1.816-1.818 2.311 2.311 0 0 0-2.084 3.903 2.313 2.313 0 0 0 1.633.679Zm0-2.776a.46.46 0 0 1 .427.286.463.463 0 1 1-.427-.286Zm-87.712 74.118h19.409a3.245 3.245 0 0 0 3.235-3.238v-13.877a3.245 3.245 0 0 0-3.235-3.238h-19.409a3.241 3.241 0 0 0-3.235 3.238v13.877a3.241 3.241 0 0 0 3.235 3.238Zm19.409-18.503a1.392 1.392 0 0 1 1.386 1.388v13.877a1.387 1.387 0 0 1-1.386 1.388h-19.409a1.39 1.39 0 0 1-1.386-1.388v-13.877a1.387 1.387 0 0 1 1.386-1.388h19.409Z" fill="#3F3D56"/><path d="M124.777 280.092a.926.926 0 0 0 .568-.195l8.318-6.476a.923.923 0 0 0 .162-1.298.923.923 0 0 0-1.297-.163l-7.751 6.035-7.75-6.035a.933.933 0 0 0-.682-.187.91.91 0 0 0-.615.35.914.914 0 0 0-.188.682.927.927 0 0 0 .35.616l8.318 6.476a.925.925 0 0 0 .567.195Z" fill="#3F3D56"/><path d="m20.532 301.225 106.912.043a.512.512 0 1 0 0-1.024l-106.912-.042a.51.51 0 0 0 0 1.023Z" fill="#CCC"/><path d="M21.955 307.877a7.16 7.16 0 0 1-7.156-7.163 7.16 7.16 0 0 1 7.156-7.164 7.16 7.16 0 0 1 7.157 7.164 7.16 7.16 0 0 1-7.157 7.163Z" fill="#77B2D3"/><path d="m23.088 164.091 107.934.043a.512.512 0 1 0 0-1.024l-107.934-.042a.51.51 0 0 0 0 1.023Z" fill="#CCC"/><path d="M21.955 171.255a7.16 7.16 0 0 1-7.156-7.164 7.16 7.16 0 0 1 7.156-7.163 7.16 7.16 0 0 1 7.157 7.163 7.16 7.16 0 0 1-7.157 7.164Z" fill="#77B2D3"/><path d="m299.423 93.99-107.934.042a.512.512 0 1 1 0-1.024l107.934-.042a.511.511 0 0 1 0 1.023Z" fill="#CCC"/><path d="M300.556 101.153a7.16 7.16 0 0 1-7.157-7.164 7.16 7.16 0 0 1 7.157-7.163 7.16 7.16 0 0 1 7.157 7.163 7.16 7.16 0 0 1-7.157 7.164Z" fill="#77B2D3"/><path d="m299.423 232.658-107.934.043a.512.512 0 1 1 0-1.024l107.934-.042a.511.511 0 0 1 0 1.023Z" fill="#CCC"/><path d="M300.556 239.822a7.16 7.16 0 0 1-7.157-7.164 7.16 7.16 0 0 1 7.157-7.163 7.16 7.16 0 0 1 7.157 7.163 7.16 7.16 0 0 1-7.157 7.164Z" fill="#77B2D3"/><path d="M124.778 301.268a22.99 22.99 0 0 0 12.78-3.881 23.044 23.044 0 0 0 3.486-35.427 22.991 22.991 0 0 0-35.393 3.489 23.036 23.036 0 0 0-3.877 12.792 23.068 23.068 0 0 0 6.745 16.275 23.02 23.02 0 0 0 16.259 6.752Zm0-45.029c4.347 0 8.597 1.29 12.212 3.708a22.002 22.002 0 0 1 9.346 22.587 22.009 22.009 0 0 1-6.015 11.266 21.976 21.976 0 0 1-11.255 6.022 21.98 21.98 0 0 1-22.565-9.356 22.017 22.017 0 0 1-3.705-12.225 22.041 22.041 0 0 1 6.446-15.551 21.994 21.994 0 0 1 15.536-6.451Zm66.455-23.538a22.99 22.99 0 0 0 12.78-3.881 23.044 23.044 0 0 0 3.486-35.427 22.987 22.987 0 0 0-35.393 3.489 23.037 23.037 0 0 0-3.877 12.793 23.067 23.067 0 0 0 6.745 16.274 23.02 23.02 0 0 0 16.259 6.752Zm0-45.029c4.347 0 8.597 1.29 12.212 3.708a22.002 22.002 0 0 1 8.096 9.874 22.018 22.018 0 0 1-4.765 23.979 21.976 21.976 0 0 1-11.255 6.022 21.98 21.98 0 0 1-22.565-9.356 22.016 22.016 0 0 1-3.705-12.224 22.042 22.042 0 0 1 6.446-15.552 21.996 21.996 0 0 1 15.536-6.451Zm-61.855-23.538c4.55 0 8.997-1.351 12.78-3.881a23.018 23.018 0 0 0 8.473-10.334 23.037 23.037 0 0 0-4.987-25.093 22.988 22.988 0 0 0-35.393 3.489 23.037 23.037 0 0 0-3.877 12.793 23.064 23.064 0 0 0 6.746 16.274 23.016 23.016 0 0 0 16.258 6.752Zm0-45.029c4.348 0 8.597 1.29 12.212 3.708a22.002 22.002 0 0 1 8.096 9.874 22.023 22.023 0 0 1-4.765 23.979 21.956 21.956 0 0 1-23.955 4.769 21.99 21.99 0 0 1-9.865-8.103 22.023 22.023 0 0 1-3.704-12.224 22.037 22.037 0 0 1 6.445-15.552 21.996 21.996 0 0 1 15.536-6.451Zm61.343-25.115c4.55 0 8.998-1.351 12.781-3.881a23.02 23.02 0 0 0 8.472-10.334 23.045 23.045 0 0 0-4.986-25.094 22.984 22.984 0 0 0-25.07-4.991 23.005 23.005 0 0 0-10.323 8.48 23.04 23.04 0 0 0-3.877 12.793 23.066 23.066 0 0 0 6.745 16.274 23.02 23.02 0 0 0 16.258 6.752Zm0-45.03c4.348 0 8.598 1.29 12.213 3.708a22.005 22.005 0 0 1 9.346 22.588 22.008 22.008 0 0 1-6.015 11.265 21.96 21.96 0 0 1-23.955 4.77 21.982 21.982 0 0 1-9.865-8.104 22.014 22.014 0 0 1-3.705-12.224 22.04 22.04 0 0 1 6.446-15.551 21.993 21.993 0 0 1 15.535-6.452Z" fill="#CCC"/><path d="M335.086 250.003a5.635 5.635 0 0 0 2.2-4.032c.014-.184.018-.369.013-.553l23.805-16.048a4.377 4.377 0 0 0 1.706-4.948l-11.378-28.295a4.96 4.96 0 0 0-2.647-2.709 4.957 4.957 0 0 0-6.502 2.59 4.965 4.965 0 0 0-.064 3.789l9.186 23.379-18.537 16.853a5.314 5.314 0 0 0-.743-.115 5.621 5.621 0 0 0-6.017 4.847 5.624 5.624 0 0 0 5.59 6.394 5.545 5.545 0 0 0 3.388-1.152Z" fill="#A0616A"/><path d="M361.094 212.788a2.456 2.456 0 0 0-.051-2.052l-5.432-11.112a6.833 6.833 0 0 0-8.569-4.457 6.842 6.842 0 0 0-4.477 8.565l1.983 12.251a2.45 2.45 0 0 0 1.141 1.706 2.463 2.463 0 0 0 2.035.249l11.852-3.77a2.455 2.455 0 0 0 1.518-1.38Z" fill="#77B2D3"/><path d="M323.633 349.973h-6.267l-2.982-24.197 9.25.001-.001 24.196Z" fill="#A0616A"/><path d="M325.232 347.925h-12.343a7.85 7.85 0 0 0-5.562 2.305 7.89 7.89 0 0 0-2.304 5.568v.256h20.208l.001-8.129Z" fill="#2F2E41"/><path d="m384.916 345.529-6.07 1.561-8.905-22.693 8.959-2.304 6.016 23.436Z" fill="#A0616A"/><path d="m385.955 343.146-11.953 3.075h-.001a7.878 7.878 0 0 0-4.813 3.62 7.865 7.865 0 0 0-.847 5.965l.064.248 19.572-5.034-2.022-7.874Z" fill="#2F2E41"/><path d="M340.959 183.975c-6.934 0-12.555-5.627-12.555-12.568s5.621-12.567 12.555-12.567c6.934 0 12.555 5.626 12.555 12.567s-5.621 12.568-12.555 12.568Z" fill="#A0616A"/><path d="M347.309 223.682a45.375 45.375 0 0 0 7.533-10.353 16.76 16.76 0 0 0 .788-13.548 17.119 17.119 0 0 0-9.708-9.899 16.791 16.791 0 0 0-12.17-.183 16.812 16.812 0 0 0-9.102 8.087c-3.142 6.154-4.373 12.171-3.66 17.885 1.364 10.922 2.163 16.568 2.373 16.779l.071.07 23.356 1.039.519-9.877Z" fill="#77B2D3"/><path d="m345.922 230.536-20.901-1.041a2.046 2.046 0 0 0-2.139 1.862l-9.614 107.882a2.043 2.043 0 0 0 2.08 2.228l8.166-.174a2.045 2.045 0 0 0 1.941-1.553l15.599-62.919a2.05 2.05 0 0 1 1.793-1.545 2.04 2.04 0 0 1 2.049 1.182l29.562 64.268a2.042 2.042 0 0 0 2.374 1.124l8.218-2.146a2.041 2.041 0 0 0 1.485-2.401c-2.704-12.776-18.9-85.942-39.291-106.193a2.016 2.016 0 0 0-1.322-.574Z" fill="#2F2E41"/><path d="M306.342 242.649a5.621 5.621 0 0 0 3.657-3.539l27.876-6.838a4.372 4.372 0 0 0 3.307-4.055l-.923-30.486a4.964 4.964 0 0 0-1.55-3.457 4.952 4.952 0 0 0-6.995.184 4.963 4.963 0 0 0-1.367 3.533l.56 25.116-23.208 9.414a5.691 5.691 0 0 0-.657-.365h-.001a5.63 5.63 0 0 0-5.237.265 5.65 5.65 0 0 0-1.925 1.896 5.645 5.645 0 0 0-.349 5.237 5.63 5.63 0 0 0 6.812 3.095Z" fill="#A0616A"/><path d="M343.232 212.922a2.456 2.456 0 0 0 .641-1.95l-1.382-12.293a6.844 6.844 0 0 0-6.573-7.083 6.837 6.837 0 0 0-7.093 6.56l-2.249 12.205a2.464 2.464 0 0 0 2.335 2.91l12.428.439a2.454 2.454 0 0 0 1.893-.788Z" fill="#77B2D3"/><path d="m358.95 188-1.312-4.244-.897 4.763-7.368-.195.034-4.697-2.801 4.635-6.677-1.477c1.427-1.903 2.87-3.835 3.782-6.077.913-2.243 1.245-4.873.392-7.143-2.107-5.612-10.096-4.042-14.466-4.089-1.275-.014-2.714-.106-3.549-1.149-.629-.786-.732-1.91-.7-2.949.164-5.349 3.373-10.453 7.909-12.58a12.253 12.253 0 0 1 7.108-.964c1.258.199 2.48.585 3.625 1.143 1.021.5 2.093 1.689 3.193 1.656.923-.027 2.146-.99 3.151-1.154a9.724 9.724 0 0 1 3.642.127 11.43 11.43 0 0 1 6.173 3.698c3.415 3.971 4.43 9.824 3.835 15.213-.595 5.388-2.609 10.455-4.601 15.435" fill="#2F2E41"/><path d="M.511 357H410.49a.511.511 0 0 0 0-1.023H.511a.51.51 0 0 0-.361.873.51.51 0 0 0 .361.15Z" fill="#E6E6E6"/><path d="M7.428 350.658a9.875 9.875 0 0 1-3.26-4.91c-.415-1.954.416-4.248 2.275-5.004 2.088-.807 4.32.646 6.009 2.107 1.689 1.461 3.633 3.135 5.848 2.82a8.897 8.897 0 0 1-2.725-8.334 3.401 3.401 0 0 1 .764-1.699c1.154-1.24 3.26-.705 4.651.272 4.414 3.109 5.644 9.107 5.661 14.511.45-1.954.077-3.985.085-5.947.008-1.963.56-4.248 2.24-5.285a6.795 6.795 0 0 1 3.396-.807c1.986-.068 4.192.128 5.55 1.58 1.698 1.802 1.248 4.834-.22 6.797-1.469 1.962-3.692 3.228-5.738 4.604a12.668 12.668 0 0 0-4.108 3.917 3.747 3.747 0 0 0-.305.697H15.117a34.612 34.612 0 0 1-7.69-5.319Z" fill="#F2F2F2"/><path d="M136.793 154.635a1.39 1.39 0 0 0 1.263-1.957l-1.6-3.573a11.981 11.981 0 0 0 1.812-15.886 11.954 11.954 0 0 0-15.58-3.532 11.977 11.977 0 0 0-5.491 6.563 11.991 11.991 0 0 0 .288 8.555 11.975 11.975 0 0 0 5.92 6.178 11.956 11.956 0 0 0 8.528.644l4.082 2.767c.229.156.5.24.778.241Zm-8.254-24.698a10.244 10.244 0 0 1 9.68 6.874 10.266 10.266 0 0 1-3.296 11.412l-.504.402 1.721 3.844-3.949-2.677-.39.132a10.246 10.246 0 0 1-11.752-3.974 10.26 10.26 0 0 1-1.388-8.503 10.25 10.25 0 0 1 5.575-6.563 10.249 10.249 0 0 1 4.303-.947Z" fill="#3F3D56"/><path d="M128.539 141.31a1.663 1.663 0 0 1-1.662-1.665 1.663 1.663 0 1 1 3.325 0c0 .92-.745 1.665-1.663 1.665Zm4.711 0a1.664 1.664 0 1 1 .002-3.328 1.664 1.664 0 0 1-.002 3.328Zm-9.422 0a1.663 1.663 0 0 1-1.662-1.665 1.663 1.663 0 1 1 3.325 0c0 .92-.744 1.665-1.663 1.665Z" fill="#3F3D56"/></g><defs><clipPath id="a"><path fill="#fff" transform="matrix(-1 0 0 1 411 0)" d="M0 0h411v357H0z"/></clipPath></defs></svg>