<svg width="476" height="417" fill="none" xmlns="http://www.w3.org/2000/svg"><g clip-path="url(#a)"><path d="M476 99.095h-2.29V36.328a36.311 36.311 0 0 0-10.65-25.688A36.372 36.372 0 0 0 437.351 0H304.253a36.384 36.384 0 0 0-25.71 10.64 36.324 36.324 0 0 0-10.65 25.687v344.345a36.312 36.312 0 0 0 10.65 25.688A36.371 36.371 0 0 0 304.252 417h133.097a36.375 36.375 0 0 0 25.71-10.64 36.315 36.315 0 0 0 10.649-25.688V143.773h2.29L476 99.095Z" fill="#3F3D56"/><path d="M466.295 33.895v349.209a27.543 27.543 0 0 1-8.075 19.477 27.589 27.589 0 0 1-19.492 8.072H302.9a27.594 27.594 0 0 1-19.502-8.067 27.543 27.543 0 0 1-8.082-19.482V33.894a27.542 27.542 0 0 1 8.082-19.48 27.59 27.59 0 0 1 19.501-8.067h16.477a13.094 13.094 0 0 0 5.973 16.493 13.122 13.122 0 0 0 6.157 1.543h77.438a13.118 13.118 0 0 0 10.867-5.794 13.089 13.089 0 0 0 1.263-12.242h17.649a27.589 27.589 0 0 1 19.493 8.068 27.543 27.543 0 0 1 8.079 19.474v.005Z" fill="#fff"/><path d="M372.262 173.6a58.338 58.338 0 0 1-41.238-17.047 58.238 58.238 0 0 1-17.097-41.189v-.051c0-.122 0-.251.007-.373.176-31.918 26.346-57.91 58.328-57.91a58.362 58.362 0 0 1 41.25 17.068 58.262 58.262 0 0 1 17.088 41.213 58.263 58.263 0 0 1-17.084 41.214 58.36 58.36 0 0 1-41.248 17.073h-.006v.002Zm0-115.344a57.253 57.253 0 0 0-40.223 16.631 57.156 57.156 0 0 0-16.876 40.092c-.007.131-.007.235-.007.334a57.03 57.03 0 0 0 9.622 31.705 57.094 57.094 0 0 0 25.629 21.02 57.158 57.158 0 0 0 32.998 3.252 57.132 57.132 0 0 0 29.246-15.614 57.025 57.025 0 0 0 12.388-62.187 57.081 57.081 0 0 0-21.032-25.612 57.152 57.152 0 0 0-31.73-9.621h-.015Zm60.322 176.623h-120.7a2.238 2.238 0 0 1-2.235-2.233v-29.914a2.237 2.237 0 0 1 2.235-2.233h120.7a2.238 2.238 0 0 1 2.235 2.233v29.915a2.237 2.237 0 0 1-2.235 2.233v-.001Zm-120.7-33.487a1.343 1.343 0 0 0-1.341 1.34v29.915a1.34 1.34 0 0 0 1.341 1.34h120.7a1.345 1.345 0 0 0 1.341-1.34v-29.915a1.34 1.34 0 0 0-1.341-1.34h-120.7Z" fill="#E6E6E6"/><path d="M349.211 211.436a1.565 1.565 0 0 0 0 3.127h73.761a1.57 1.57 0 0 0 1.123-.415 1.558 1.558 0 0 0 .5-1.088 1.567 1.567 0 0 0-1.504-1.622l-.068-.001h-73.812v-.001Zm0 9.38a1.56 1.56 0 0 0-1.564 1.563 1.566 1.566 0 0 0 1.564 1.564h73.761a1.571 1.571 0 0 0 1.481-.91 1.551 1.551 0 0 0-.273-1.716 1.582 1.582 0 0 0-1.089-.5l-.068-.001h-73.812Zm83.373 64.088h-120.7a2.238 2.238 0 0 1-2.235-2.233v-29.914a2.235 2.235 0 0 1 2.235-2.233h120.7a2.238 2.238 0 0 1 2.235 2.233v29.915a2.237 2.237 0 0 1-2.235 2.232Zm-120.7-33.487a1.343 1.343 0 0 0-1.341 1.34v29.915a1.34 1.34 0 0 0 1.341 1.34h120.7a1.345 1.345 0 0 0 1.341-1.34v-29.915a1.34 1.34 0 0 0-1.341-1.34h-120.7Z" fill="#E6E6E6"/><path d="M349.211 261.459a1.565 1.565 0 0 0 0 3.127h73.761a1.567 1.567 0 0 0 1.556-1.538 1.568 1.568 0 0 0-1.505-1.588h-73.812v-.001Zm0 9.382a1.565 1.565 0 0 0 0 3.127h73.761a1.567 1.567 0 0 0 1.556-1.538 1.568 1.568 0 0 0-1.505-1.588h-73.812v-.001Zm83.373 64.087h-120.7a2.236 2.236 0 0 1-2.235-2.233v-29.914a2.235 2.235 0 0 1 2.235-2.233h120.7a2.238 2.238 0 0 1 2.235 2.233v29.915a2.237 2.237 0 0 1-2.235 2.233v-.001Zm-120.7-33.487a1.339 1.339 0 0 0-1.341 1.34v29.915a1.34 1.34 0 0 0 1.341 1.34h120.7a1.34 1.34 0 0 0 1.341-1.34v-29.915a1.34 1.34 0 0 0-1.341-1.34h-120.7Z" fill="#E6E6E6"/><path d="M349.211 311.485a1.56 1.56 0 0 0-1.564 1.563 1.562 1.562 0 0 0 1.564 1.563h73.761a1.551 1.551 0 0 0 1.123-.415c.151-.14.273-.307.358-.494a1.551 1.551 0 0 0-.273-1.716 1.582 1.582 0 0 0-1.089-.5l-.068-.001h-73.812Zm0 9.38a1.56 1.56 0 0 0-1.564 1.563 1.566 1.566 0 0 0 1.564 1.563h73.761a1.551 1.551 0 0 0 1.123-.415c.151-.139.273-.307.358-.494a1.551 1.551 0 0 0-.273-1.716 1.582 1.582 0 0 0-1.089-.5l-.068-.001h-73.812Z" fill="#E6E6E6"/><path d="M390.695 113.899h-17.013V96.9h-2.835v17h-17.013v2.832h17.013v16.999h2.835v-16.999h17.013V113.9Z" fill="#77B2D3"/><path d="M129.442 327.653s-13.911 15.222-15.898 50.299-2.65 39.048-2.65 39.048h49.681l9.269-23.823 10.601 23.821h47.03s5.299-72.801 0-74.787c-5.299-1.985-98.033-14.558-98.033-14.558Z" fill="#2F2E41"/><path d="M196.011 148.628c13.17 0 23.846-10.667 23.846-23.826 0-13.158-10.676-23.825-23.846-23.825s-23.846 10.667-23.846 23.825c0 13.159 10.676 23.826 23.846 23.826Zm103.004 179.69-36.432-66.184-21.199-34.415 25.173-11.252 13.91 27.135s18.548 27.135 23.184 49.638c4.636 22.503 9.274 33.092 9.274 33.092l-13.91 1.986Zm-200.71-19.196 54.316-47.652-2.646-38.386h-15.236l-4.639 19.855-43.718 57.579 11.922 8.604Z" fill="#FFB8B8"/><path d="M168.521 160.211s19.673 8.241 34.344-1.836c0 0 35.87 5.809 37.857 7.793 1.988 1.984-1.987 61.548-1.987 61.548l-7.947 33.755s11.26 51.623-5.3 64.86L228.8 344.2s-73.526 5.295-102.672-12.575l5.299-17.87 13.91-56.256-8.611-78.094s6.622-17.87 31.795-19.194Z" fill="#E4E4E4"/><path d="m223.832 169.145 17.222-2.645s8.612 1.324 16.56 17.87c7.949 16.546 16.561 38.386 16.561 38.386l-29.808 13.236-24.509-38.386 3.974-28.461Zm-83.131 6.95-3.974 3.309s-5.299 19.193-5.299 32.43v17.869l23.846 2.647-14.573-56.255Z" fill="#E4E4E4"/><path d="M172.172 131.268s-3.242-3.497-2.914-7.875c.217-2.491.057-5-.472-7.443 0 0 1.014-7.166 2.512-11.32s.235-5.6 6.675-7.867c6.44-2.267 2.34-10.468 21.325-3.93a5.196 5.196 0 0 0 5.649 1.154c3.505-1.283 5.617 3.528 5.617 3.528s2.186-1.792 3.413.071c1.227 1.864 7.16-2.383 9.337 11.172 2.177 13.556-5.293 25.644-5.293 25.644s-1.048-21.691-13.378-22.085c-12.33-.394-26.273-5.059-28.002 4.075-1.73 9.134-4.469 14.876-4.469 14.876Z" fill="#2F2E41"/><path d="M89.616 319.259c5.675 0 10.276-4.597 10.276-10.268s-4.6-10.268-10.276-10.268-10.277 4.597-10.277 10.268 4.601 10.268 10.277 10.268Z" fill="#FFB8B8"/><path d="m15.53 378.341 169.251-33.756-14.144-70.796L1.385 307.543l14.145 70.798Z" fill="#fff"/><path d="M186.167 345.509 14.606 379.728 0 306.621l171.561-34.217 14.606 73.105ZM16.454 376.958l166.943-33.295-13.684-68.491L2.771 308.468l13.683 68.49Z" fill="#E4E4E4"/><path d="m70.715 355.838-.07.029a24.288 24.288 0 0 1-2.273.815c-.194.059-.395.121-.596.175-.327.094-.661.177-.998.255-.144.037-.296.069-.44.1l-.088.018c-.18.039-.36.077-.543.109l-.469.082c-.087.019-.173.031-.258.043a25.014 25.014 0 0 1-20.865-6.356 24.97 24.97 0 0 1-7.921-20.307 24.953 24.953 0 0 1 3.368-10.662 24.983 24.983 0 0 1 18.155-12.083 25.02 25.02 0 0 1 11.145 1.003 24.95 24.95 0 0 0-1.83 35.224 25.003 25.003 0 0 0 10.827 7.041 24.881 24.881 0 0 1-7.143 4.516l-.001-.002Z" fill="#77B2D3"/><path d="M106.444 343.139a24.442 24.442 0 0 0 3.386 1.389 24.864 24.864 0 0 1-11.522 5.889l-.314.067a25.018 25.018 0 0 1-21.318-5.64 24.965 24.965 0 0 1-8.55-20.309A24.979 24.979 0 0 1 79 305.367a25.01 25.01 0 0 1 21.833-3.103 24.905 24.905 0 0 0-3.573 33.095 24.93 24.93 0 0 0 9.184 7.78Z" fill="#77B2D3"/><path d="M149.518 314.009c1.029 4.83.6 9.857-1.231 14.444a24.972 24.972 0 0 1-9.056 11.327 25 25 0 0 1-27.766.366 24.968 24.968 0 0 1-9.352-11.083 24.961 24.961 0 0 1 5.057-27.282 25.003 25.003 0 0 1 38.498 3.276 24.955 24.955 0 0 1 3.85 8.952Z" fill="#77B2D3"/><path d="M139.053 336.291a16.73 16.73 0 0 1 .368 3.362 25.052 25.052 0 0 1-19.124 4.064 16.676 16.676 0 0 1-1.033-3.221c-1.223-5.746.672-11.224 4.359-13.702a7.737 7.737 0 0 1-4.484-2.634 7.725 7.725 0 0 1 4.325-12.517 7.739 7.739 0 0 1 8.708 4.488 7.727 7.727 0 0 1-2.682 9.416c4.378.765 8.34 4.998 9.563 10.744Zm-32.609 6.85.016.075c.21 1.388.305 2.791.285 4.195-2.589 1.814-5.483 2.338-8.75 3.075l-.315.067a24.917 24.917 0 0 1-9.976.089 2.635 2.635 0 0 1-.116-.291 15.985 15.985 0 0 1-.916-2.93c-1.222-5.745.673-11.223 4.36-13.702a7.734 7.734 0 0 1-6.286-7.509 7.734 7.734 0 0 1 7.93-7.804 24.923 24.923 0 0 0 3.032 14.508 24.953 24.953 0 0 0 10.737 10.228l-.001-.001Zm-31.353 7.093c.199.995.302 2.007.31 3.022a24.923 24.923 0 0 1-6.441 3.241 18.25 18.25 0 0 1-.587.184c-.194.059-.395.121-.596.175-.327.095-.661.178-.998.255-.069.021-.144.037-.214.052l-.314.066c-.18.039-.36.077-.542.11l-.47.081c-.087.019-.173.031-.258.043a24.794 24.794 0 0 1-8.706-.143.104.104 0 0 1-.014-.04 1.926 1.926 0 0 1-.103-.252 15.985 15.985 0 0 1-.915-2.93c-1.223-5.745.672-11.223 4.36-13.701a7.735 7.735 0 0 1-6.287-7.51 7.725 7.725 0 0 1 6.127-7.64c.42-.09.845-.144 1.274-.161a24.922 24.922 0 0 0 3.16 14.871 24.956 24.956 0 0 0 11.215 10.276v.001Z" fill="#fff"/><path d="M332.588 222.176a8.341 8.341 0 0 1-.169 1.683 12.52 12.52 0 0 1-9.778 0 8.415 8.415 0 0 1-.17-1.683c0-2.937 1.497-5.419 3.559-6.249a3.86 3.86 0 0 1-.95-6.553 3.87 3.87 0 0 1 6.241 2.226 3.86 3.86 0 0 1-2.292 4.327c2.063.83 3.559 3.312 3.559 6.249Zm0 51.039a8.349 8.349 0 0 1-.169 1.683 12.538 12.538 0 0 1-9.778 0 8.422 8.422 0 0 1-.17-1.683c0-2.937 1.497-5.42 3.559-6.249a3.868 3.868 0 0 1-2.292-4.327 3.87 3.87 0 0 1 7.583 0 3.864 3.864 0 0 1-2.292 4.327c2.063.829 3.559 3.312 3.559 6.249Zm0 50.023a8.349 8.349 0 0 1-.169 1.683 12.538 12.538 0 0 1-9.778 0 8.422 8.422 0 0 1-.17-1.683c0-2.937 1.497-5.42 3.559-6.249a3.868 3.868 0 0 1-2.292-4.327 3.87 3.87 0 0 1 7.583 0 3.864 3.864 0 0 1-2.292 4.327c2.063.829 3.559 3.312 3.559 6.249Z" fill="#77B2D3"/><path d="M306.601 340.381c5.189 0 9.396-4.203 9.396-9.388 0-5.184-4.207-9.387-9.396-9.387-5.189 0-9.396 4.203-9.396 9.387 0 5.185 4.207 9.388 9.396 9.388Z" fill="#FFB8B8"/></g><defs><clipPath id="a"><path fill="#fff" d="M0 0h476v417H0z"/></clipPath></defs></svg>